<?xml version="1.0" encoding="UTF-8"?>
<svg width="3029px" height="900px" viewBox="0 0 3029 900" version="1.1" xmlns="http://www.w3.org/2000/svg" xmlns:xlink="http://www.w3.org/1999/xlink">
    <!-- Generator: Sketch 60.1 (88133) - https://sketch.com -->
    <title>apple</title>
    <desc>Created with Sketch.</desc>
    <g id="apple" stroke="none" stroke-width="1" fill="none" fill-rule="evenodd">
        <g id="Download_on_the_App_Store_Badge_US-UK_RGB_blk_092917" fill-rule="nonzero">
            <g id="Group">
                <g id="Path">
                    <path d="M2787.78934,0 L241.346845,0 C232.064741,0 222.894013,0 213.636462,0.0479248442 C205.887032,0.092924698 198.199364,0.223649273 190.375515,0.333673916 C173.3785,0.511463919 156.421455,1.84063487 139.651743,4.30963599 C122.905584,6.83238692 106.684012,11.5884915 91.5356663,18.4170901 C76.4058478,25.3034563 62.5813,34.2515831 50.5635445,44.936854 C38.482698,55.5920767 28.4123796,67.9080728 20.739819,81.4112604 C13.0460825,94.8875718 7.71122083,109.328681 4.91948962,124.235821 C2.10121669,139.124133 0.584678383,154.184136 0.383484784,169.280675 C0.148584533,176.179152 0.123778257,183.10058 0,189.999958 L0,710.069117 C0.123778257,717.055345 0.148584533,723.823323 0.383484784,730.8118 C0.58474008,745.90759 2.10127841,760.966841 4.91948962,775.854403 C7.70351202,790.770258 13.0386891,805.219658 20.739819,818.701014 C28.4088958,832.160536 38.4806303,844.42667 50.5635445,855.022646 C62.5357325,865.755427 76.3692161,874.709642 91.5356663,881.54331 C106.683897,888.390185 122.90372,893.174599 139.651743,895.736264 C156.424306,898.185487 173.379607,899.515198 190.375515,899.714251 C198.199364,899.86725 205.887032,899.955 213.636462,899.955 C222.893759,900 232.065247,900 241.346845,900 L2787.78934,900 C2796.88666,900 2806.13079,900 2815.22812,899.955 C2822.94084,899.955 2830.85101,899.86725 2838.56373,899.714251 C2855.52751,899.525785 2872.45089,898.195989 2889.18879,895.736264 C2905.99084,893.156565 2922.26881,888.373419 2937.49015,881.54331 C2952.64292,874.705686 2966.46364,865.751715 2978.42557,855.022646 C2990.47731,844.385171 3000.57055,832.128009 3008.33485,818.701014 C3015.9782,805.20985 3021.26259,790.761606 3024.00584,775.854403 C3026.82856,760.964798 3028.39891,745.908897 3028.70384,730.8118 C3028.80256,723.823323 3028.80256,717.055345 3028.80256,710.069117 C3029,701.894894 3029,693.76567 3029,685.458697 L3029,214.565153 C3029,206.325454 3029,198.151681 3028.80256,189.999958 C3028.80256,183.10058 3028.80256,176.179152 3028.70384,169.279775 C3028.39897,154.181929 3026.82862,139.125275 3024.00584,124.234921 C3021.25494,109.336406 3015.97086,94.8964403 3008.33485,81.4103604 C2992.71004,54.3446602 2967.93361,32.3133914 2937.49015,18.4150652 C2922.26877,11.6031533 2905.98905,6.84831197 2889.18879,4.307611 C2872.45379,1.82773168 2855.52864,0.498098091 2838.56373,0.330523926 C2830.85101,0.220724283 2822.94084,0.0888747112 2815.22812,0.0449998538 C2806.13079,0 2796.88666,0 2787.78934,0 L2787.78934,0 Z" fill="#A6A6A6"></path>
                    <path d="M213.674479,880.954983 C205.961752,880.954983 198.435337,880.867199 190.783111,880.71414 C174.930905,880.530487 159.115749,879.303413 143.467349,877.042983 C128.876005,874.808511 114.740915,870.651985 101.52832,864.710507 C88.4368778,858.818258 76.4964297,851.092176 66.164399,841.828236 C55.6828144,832.673421 46.9564164,822.055397 40.3310165,810.394939 C33.6326103,798.658696 28.9969146,786.078859 26.5854121,773.093642 C23.9811987,759.140879 22.5722114,745.032435 22.3705997,730.889967 C22.2101078,726.142897 22,710.337339 22,710.337339 L22,190.375451 C22,190.375451 22.2237774,174.812761 22.3718654,170.240583 C22.564907,156.120518 23.9657011,142.033967 26.5621231,128.102858 C28.9780769,115.082069 33.6173613,102.465957 40.3193719,90.6912692 C46.9204219,79.0388647 55.5983727,68.4129121 66.0168173,59.2253341 C76.4235518,49.9504612 88.402195,42.1845955 101.515916,36.2109383 C114.698145,30.2885494 128.806521,26.1613438 143.368371,23.9675957 C159.068163,21.6844587 174.938223,20.4500844 190.845384,20.2748303 L213.686883,20 L2815.18933,20 L2838.30372,20.2858596 C2854.06619,20.4524053 2869.79208,21.6757674 2885.3476,23.9455372 C2900.05687,26.1668026 2914.31228,30.322806 2927.64508,36.2768885 C2953.91661,48.3155387 2975.29326,67.361819 2988.77885,90.7461903 C2995.37388,102.439592 2999.94161,114.952795 3002.327,127.861115 C3004.95434,141.90653 3006.42478,156.103778 3006.72661,170.339621 C3006.80002,176.714065 3006.80002,183.561189 3006.80002,190.375451 C3007,198.816186 3007,206.85019 3007,214.950145 L3007,686.025771 C3007,694.203155 3007,702.182464 3006.80002,710.227047 C3006.80002,717.546852 3006.80002,724.252172 3006.70129,731.153317 C3006.406,745.135129 3004.96007,759.078966 3002.3751,772.873058 C3000.01302,785.951946 2995.40257,798.629975 2988.70544,810.462465 C2982.0332,821.996361 2973.35692,832.522409 2962.99635,841.652669 C2952.65502,850.966393 2940.6935,858.737678 2927.57167,864.66774 C2914.2758,870.654893 2900.04137,874.82679 2885.3476,877.042983 C2869.70039,879.315476 2853.88371,880.542628 2838.03032,880.71414 C2830.6158,880.867199 2822.85194,880.954983 2815.31337,880.954983 L2787.87279,881 L213.674479,880.954983 Z" fill="#000000"></path>
                </g>
                <g id="Group-2" transform="translate(377.500000, 158.000000)" fill="#FFFFFF">
                    <g id="_Group_">
                        <g id="_Group_2">
                            <g id="_Group_3">
                                <path d="M354.7998,276.7653 C355.291582,238.594705 375.302766,203.336687 407.8224,183.34395 C387.214034,153.911537 353.933821,135.919763 318.0213,134.79615 C280.2384,130.8303 243.609525,157.404825 224.35605,157.404825 C204.729975,157.404825 175.086225,135.1899 143.1648,135.846675 C101.164528,137.203614 62.9580864,160.504323 42.5241,197.22375 C-0.9909,272.5632 31.467375,383.286825 73.1511,444.18555 C94.00635,474.005925 118.38015,507.31605 150.272775,506.1348 C181.481625,504.840375 193.137525,486.234 230.809275,486.234 C268.131375,486.234 279.06705,506.1348 311.606775,505.38375 C345.095325,504.84015 366.1947,475.43085 386.31825,445.3281 C401.302713,424.079993 412.833233,400.596209 420.4827,375.746625 C380.708473,358.924079 354.846223,319.950773 354.7998,276.7653 L354.7998,276.7653 Z" id="_Path_"></path>
                                <path d="M293.338125,94.745025 C311.597473,72.8253429 320.593161,44.6513052 318.414825,16.206075 C290.518601,19.136036 264.750305,32.4686177 246.244275,53.5473 C227.970421,74.3442531 218.712929,101.552235 220.5108,129.178575 C248.781079,129.469652 275.623112,116.778447 293.338125,94.745025 L293.338125,94.745025 Z" id="_Path_2"></path>
                            </g>
                        </g>
                        <g id="Group" transform="translate(562.500000, 202.500000)">
                            <path d="M186.801075,228.142125 L80.299575,228.142125 L54.723375,303.66225 L9.613575,303.66225 L110.490075,24.25725 L157.357575,24.25725 L258.234075,303.66225 L212.355,303.66225 L186.801075,228.142125 Z M91.32975,193.29345 L175.74975,193.29345 L134.133525,70.729875 L132.968925,70.729875 L91.32975,193.29345 Z" id="Shape"></path>
                            <path d="M476.093025,201.818925 C476.093025,265.122225 442.211175,305.79345 391.080825,305.79345 C364.651994,307.175954 339.757479,293.333191 326.98665,270.15345 L326.01915,270.15345 L326.01915,371.052 L284.20515,371.052 L284.20515,99.95355 L324.6795,99.95355 L324.6795,133.8354 L325.44855,133.8354 C338.786737,110.800978 363.708096,96.9641738 390.311775,97.822125 C442.0125,97.82235 476.093025,138.69135 476.093025,201.818925 Z M433.114425,201.818925 C433.114425,160.576425 411.80085,133.4619 379.281375,133.4619 C347.333175,133.4619 325.843875,161.147475 325.843875,201.818925 C325.843875,242.863875 347.333175,270.351675 379.281375,270.351675 C411.801075,270.351675 433.114425,243.43515 433.114425,201.818925 Z" id="Shape"></path>
                            <path d="M700.301925,201.818925 C700.301925,265.122225 666.420075,305.79345 615.289725,305.79345 C588.860894,307.175954 563.966379,293.333191 551.19555,270.15345 L550.22805,270.15345 L550.22805,371.052 L508.41405,371.052 L508.41405,99.95355 L548.8875,99.95355 L548.8875,133.8354 L549.65655,133.8354 C562.994834,110.800992 587.916288,96.9642692 614.52,97.82235 C666.2223,97.82235 700.301925,138.69135 700.301925,201.818925 Z M657.32355,201.818925 C657.32355,160.576425 636.00975,133.4619 603.490275,133.4619 C571.542075,133.4619 550.052775,161.147475 550.052775,201.818925 C550.052775,242.863875 571.542075,270.351675 603.490275,270.351675 C636.009975,270.351675 657.32355,243.43515 657.32355,201.818925 L657.32355,201.818925 Z" id="Shape"></path>
                            <path d="M848.485575,225.812925 C851.583825,253.52055 878.500575,271.712925 915.28245,271.712925 C950.526675,271.712925 975.88305,253.51965 975.88305,228.53655 C975.88305,206.849475 960.590025,193.86405 924.3792,184.96485 L888.168375,176.2416 C836.8623,163.84905 813.0438,139.854825 813.0438,100.91925 C813.0438,52.7112 855.055575,19.5984 914.711175,19.5984 C973.751175,19.5984 1014.2253,52.7112 1015.58768,100.91925 L973.377675,100.91925 C970.850925,73.0359 947.801475,56.205 914.1174,56.205 C880.433325,56.205 857.3841,73.2339 857.3841,98.019 C857.3841,117.772425 872.10585,129.395925 908.1189,138.294 L938.9025,145.85265 C996.229125,159.4098 1020.04762,182.43765 1020.04762,223.3062 C1020.04762,275.5791 978.40935,308.3184 912.18375,308.3184 C850.220775,308.3184 808.38495,276.34815 805.68225,225.8109 L848.485575,225.812925 Z" id="Path"></path>
                            <path d="M1110.28973,51.7455 L1110.28973,99.95355 L1149.02753,99.95355 L1149.02753,133.06635 L1110.28973,133.06635 L1110.28973,245.368575 C1110.28973,262.81485 1118.04615,270.944775 1135.07483,270.944775 C1139.67363,270.864584 1144.265,270.541634 1148.82975,269.977275 L1148.82975,302.8923 C1141.17364,304.32284 1133.39184,304.970726 1125.60458,304.82595 C1084.36208,304.82595 1068.27795,289.33515 1068.27795,249.8283 L1068.27795,133.06635 L1038.65895,133.06635 L1038.65895,99.95355 L1068.2775,99.95355 L1068.2775,51.7455 L1110.28973,51.7455 Z" id="Path"></path>
                            <path d="M1171.4625,201.818925 C1171.4625,137.72475 1209.21142,97.44885 1268.07637,97.44885 C1327.13887,97.44885 1364.71207,137.72385 1364.71207,201.818925 C1364.71207,266.08905 1327.33665,306.189 1268.07637,306.189 C1208.83702,306.189 1171.4625,266.088825 1171.4625,201.818925 Z M1322.10698,201.818925 C1322.10698,157.851675 1301.958,131.901975 1268.07615,131.901975 C1234.1943,131.901975 1214.06738,158.04945 1214.06738,201.818925 C1214.06738,245.9619 1234.1943,271.71405 1268.07615,271.71405 C1301.958,271.71405 1322.10698,245.9619 1322.10698,201.818925 L1322.10698,201.818925 Z" id="Shape"></path>
                            <path d="M1399.18612,99.95355 L1439.0667,99.95355 L1439.0667,134.62605 L1440.0342,134.62605 C1445.59566,112.305789 1466.04718,96.94421 1489.03312,97.8219 C1493.85182,97.8050752 1498.65721,98.3283918 1503.35932,99.38205 L1503.35932,138.49335 C1497.27602,136.634475 1490.93009,135.781004 1484.57182,135.9666 C1472.27891,135.467897 1460.3821,140.367031 1452.00513,149.377634 C1443.62817,158.388237 1439.60797,170.610092 1441.00012,182.8341 L1441.00012,303.6618 L1399.18612,303.6618 L1399.18612,99.95355 Z" id="Path"></path>
                            <path d="M1696.14675,243.830475 C1690.52175,280.81035 1654.50848,306.188775 1608.43185,306.188775 C1549.17157,306.188775 1512.38947,266.48415 1512.38947,202.785525 C1512.38947,138.889125 1549.36935,97.448625 1606.67415,97.448625 C1663.03395,97.448625 1698.47595,136.164375 1698.47595,197.929575 L1698.47595,212.255775 L1554.59902,212.255775 L1554.59902,214.782525 C1553.25572,229.948237 1558.49246,244.960187 1568.9772,255.999823 C1579.46194,267.039459 1594.18412,273.042749 1609.3989,272.48265 C1629.69035,274.383891 1648.82122,262.731998 1656.44235,243.83025 L1696.14675,243.830475 Z M1554.7964,183.032325 L1656.6399,183.032325 C1657.39872,169.404694 1652.43817,156.078519 1642.95338,146.26421 C1633.46858,136.4499 1620.31952,131.037309 1606.67415,131.330475 C1592.92084,131.2484 1579.70454,136.663529 1569.96282,146.372248 C1560.22111,156.080967 1554.76117,169.278816 1554.7964,183.032325 L1554.7964,183.032325 Z" id="Shape"></path>
                        </g>
                    </g>
                    <g id="_Group_4" transform="translate(585.000000, 0.000000)">
                        <g id="Group">
                            <path d="M63.589275,16.4475 C81.3405725,15.1736441 98.727576,21.9273171 110.964629,34.8496159 C123.201682,47.7719146 128.998932,65.5007578 126.760725,83.1564 C126.760725,126.047025 103.57965,150.7014 63.589275,150.7014 L15.0957,150.7014 L15.0957,16.4475 L63.589275,16.4475 Z M35.947575,131.715 L61.260075,131.715 C73.9460688,132.473295 86.2984468,127.475078 94.8874166,118.108165 C103.476386,108.741253 107.387541,96.0028744 105.5349,83.43 C107.252753,70.909302 103.285273,58.2760399 94.7175992,48.9855146 C86.1499253,39.6949893 73.8786526,34.7194417 61.260075,35.419725 L35.947575,35.419725 L35.947575,131.715 Z" id="Shape"></path>
                            <path d="M150.3153,99.99765 C148.57801,81.8375636 157.285882,64.2625185 172.786858,54.6434408 C188.287834,45.024363 207.901841,45.024363 223.402817,54.6434408 C238.903793,64.2625185 247.611665,81.8375636 245.874375,99.99765 C247.644719,118.177251 238.944795,135.786384 223.430075,145.426169 C207.915355,155.065955 188.27432,155.065955 172.7596,145.426169 C157.24488,135.786384 148.544956,118.177251 150.3153,99.99765 Z M225.308025,99.99765 C225.308025,78.036075 215.442,65.193075 198.1278,65.193075 C180.74745,65.193075 170.9703,78.036075 170.9703,99.997875 C170.9703,122.1354 180.748125,134.8794 198.1278,134.8794 C215.44245,134.8794 225.308025,122.0472 225.308025,99.99765 L225.308025,99.99765 Z" id="Shape"></path>
                            <polygon id="Path" points="372.89835 150.699375 352.156275 150.699375 331.216425 76.08015 329.63445 76.08015 308.78235 150.699375 288.237825 150.699375 260.3106 49.38345 280.591425 49.38345 298.740825 126.69345 300.23505 126.69345 321.0651 49.38345 340.24725 49.38345 361.0773 126.69345 362.659275 126.69345 380.7207 49.38345 400.715775 49.38345"></polygon>
                            <path d="M424.204425,49.38345 L443.4525,49.38345 L443.4525,65.478375 L444.946725,65.478375 C450.142759,53.6282536 462.284389,46.3794181 475.1811,47.42775 C485.166978,46.6769648 494.952432,50.5077728 501.774542,57.8385466 C508.596653,65.1693203 511.715094,75.2045346 510.249375,85.11075 L510.249375,150.69825 L490.2543,150.69825 L490.2543,90.13185 C490.2543,73.850175 483.179175,65.7531 468.3915,65.7531 C461.618231,65.4376302 455.044954,68.0958578 450.394979,73.0308776 C445.745003,77.9658974 443.482088,84.6855227 444.1995,91.428075 L444.1995,150.699375 L424.204425,150.699375 L424.204425,49.38345 Z" id="Path"></path>
                            <polygon id="Path" points="542.109825 9.8325 562.1049 9.8325 562.1049 150.69915 542.109825 150.69915"></polygon>
                            <path d="M589.900275,99.99765 C588.16432,81.8363756 596.873565,64.2608857 612.375691,54.6416596 C627.877818,45.0224334 647.492832,45.0224334 662.994959,54.6416596 C678.497085,64.2608857 687.20633,81.8363756 685.470375,99.99765 C687.23847,118.177902 678.536952,135.786537 663.021462,145.425898 C647.505972,155.065259 627.864678,155.065259 612.349188,145.425898 C596.833698,135.786537 588.13218,118.177902 589.900275,99.99765 L589.900275,99.99765 Z M664.893,99.99765 C664.893,78.036075 655.026975,65.193075 637.712775,65.193075 C620.332425,65.193075 610.555275,78.036075 610.555275,99.997875 C610.555275,122.1354 620.3331,134.8794 637.712775,134.8794 C655.0272,134.8794 664.893,122.0472 664.893,99.99765 L664.893,99.99765 Z" id="Shape"></path>
                            <path d="M706.52025,122.0472 C706.52025,103.809825 720.09945,93.296025 744.20325,91.8018 L771.647175,90.219825 L771.647175,81.47475 C771.647175,70.773975 764.57205,64.7316 750.9051,64.7316 C739.743075,64.7316 732.0087,68.829525 729.7893,75.992625 L710.431425,75.992625 C712.474875,58.590225 728.844525,47.4282 751.827825,47.4282 C777.2283,47.4282 791.5545,60.0732 791.5545,81.47475 L791.5545,150.6996 L772.306425,150.6996 L772.306425,136.461375 L770.72445,136.461375 C764.187043,146.859218 752.561407,152.936173 740.2923,152.368875 C731.691363,153.263516 723.113351,150.47799 716.678906,144.70093 C710.244461,138.92387 706.554137,130.694474 706.52025,122.0472 L706.52025,122.0472 Z M771.647175,113.389875 L771.647175,104.919525 L746.90595,106.5015 C732.95325,107.43525 726.625125,112.1814 726.625125,121.113225 C726.625125,130.2318 734.535225,135.5382 745.412625,135.5382 C751.851812,136.190022 758.279844,134.200689 763.225209,130.025601 C768.170574,125.850513 771.209811,119.847174 771.647175,113.389875 Z" id="Shape"></path>
                            <path d="M817.8336,99.99765 C817.8336,67.983525 834.291225,47.7027 859.88925,47.7027 C872.814977,47.107128 884.92112,54.0331395 890.9586,65.4777 L892.452825,65.4777 L892.452825,9.8325 L912.4479,9.8325 L912.4479,150.69915 L893.2878,150.69915 L893.2878,134.691975 L891.705825,134.691975 C885.211969,146.041582 872.956677,152.850521 859.889475,152.368875 C834.1155,152.37 817.8336,132.088725 817.8336,99.99765 Z M838.4886,99.99765 C838.4886,121.48695 848.6181,134.417925 865.559025,134.417925 C882.411525,134.417925 892.827,121.300425 892.827,100.085625 C892.827,78.969825 882.302175,65.66535 865.559025,65.66535 C848.727225,65.66535 838.487925,78.684075 838.487925,99.99765 L838.4886,99.99765 Z" id="Shape"></path>
                            <path d="M995.175,99.99765 C993.43771,81.8375636 1002.14558,64.2625185 1017.64656,54.6434408 C1033.14753,45.024363 1052.76154,45.024363 1068.26252,54.6434408 C1083.76349,64.2625185 1092.47136,81.8375636 1090.73408,99.99765 C1092.50442,118.177251 1083.80449,135.786384 1068.28977,145.426169 C1052.77505,155.065955 1033.13402,155.065955 1017.6193,145.426169 C1002.10458,135.786384 993.404656,118.177251 995.175,99.99765 L995.175,99.99765 Z M1070.1675,99.99765 C1070.1675,78.036075 1060.3017,65.193075 1042.9875,65.193075 C1025.60715,65.193075 1015.83,78.036075 1015.83,99.997875 C1015.83,122.1354 1025.60783,134.8794 1042.9875,134.8794 C1060.30192,134.8794 1070.1675,122.0472 1070.1675,99.99765 Z" id="Shape"></path>
                            <path d="M1117.56263,49.38345 L1136.8107,49.38345 L1136.8107,65.478375 L1138.30493,65.478375 C1143.50096,53.6282536 1155.64259,46.3794181 1168.5393,47.42775 C1178.52518,46.6769648 1188.31063,50.5077728 1195.13274,57.8385466 C1201.95485,65.1693203 1205.07329,75.2045346 1203.60758,85.11075 L1203.60758,150.69825 L1183.6125,150.69825 L1183.6125,90.13185 C1183.6125,73.850175 1176.53738,65.7531 1161.7497,65.7531 C1154.97643,65.4376302 1148.40315,68.0958578 1143.75318,73.0308776 C1139.1032,77.9658974 1136.84029,84.6855227 1137.5577,91.428075 L1137.5577,150.699375 L1117.56263,150.699375 L1117.56263,49.38345 Z" id="Path"></path>
                            <path d="M1316.5911,24.158925 L1316.5911,49.844925 L1338.54187,49.844925 L1338.54187,66.687075 L1316.5911,66.687075 L1316.5911,118.78425 C1316.5911,129.39705 1320.96375,134.0442 1330.9173,134.0442 C1333.46555,134.036045 1336.01124,133.881967 1338.54187,133.582725 L1338.54187,150.2379 C1334.95109,150.880291 1331.31298,151.222051 1327.66537,151.259625 C1305.42907,151.259625 1296.57397,143.437275 1296.57397,123.903675 L1296.57397,66.686175 L1280.49007,66.686175 L1280.49007,49.844025 L1296.57397,49.844025 L1296.57397,24.158925 L1316.5911,24.158925 Z" id="Path"></path>
                            <path d="M1365.85372,9.8325 L1385.67307,9.8325 L1385.67307,65.665125 L1387.25505,65.665125 C1392.70067,53.7112926 1405.0548,46.4532197 1418.14755,47.515725 C1428.07672,46.9754388 1437.72971,50.8905836 1444.47726,58.1947617 C1451.2248,65.4989399 1454.36411,75.4313768 1453.0401,85.2867 L1453.0401,150.699375 L1433.025,150.699375 L1433.025,90.219375 C1433.025,74.036475 1425.4875,65.840625 1411.35997,65.840625 C1404.40363,65.2701075 1397.55013,67.7990466 1392.6317,72.7513538 C1387.71328,77.703661 1385.23144,84.574357 1385.8497,91.526625 L1385.8497,150.699375 L1365.85462,150.699375 L1365.85372,9.8325 Z" id="Path"></path>
                            <path d="M1569.62813,123.343425 C1564.02128,142.454463 1545.52723,154.802318 1525.7268,152.65485 C1512.21699,153.011479 1499.23331,147.411691 1490.22064,137.341241 C1481.20796,127.270792 1477.07744,113.747759 1478.925,100.360125 C1477.12652,86.9352857 1481.24156,73.390584 1490.20404,63.2350565 C1499.16653,53.079529 1512.09455,47.3124769 1525.63882,47.427975 C1553.82975,47.427975 1570.8366,66.687975 1570.8366,98.502975 L1570.8366,105.48 L1499.29358,105.48 L1499.29358,106.6005 C1498.66047,114.118653 1501.22814,121.555074 1506.36512,127.080916 C1511.50209,132.606757 1518.73173,135.709288 1526.27603,135.6255 C1536.05839,136.79988 1545.58086,131.947493 1550.38005,123.34275 L1569.62813,123.343425 Z M1499.29312,90.6921 L1550.46735,90.6921 C1550.97704,83.8161098 1548.55932,77.0446141 1543.80998,72.0463296 C1539.06065,67.0480451 1532.42139,64.2878151 1525.52835,64.44585 C1518.54192,64.3580755 1511.81613,67.0954778 1506.87667,72.0370999 C1501.93721,76.9787219 1499.20275,83.705709 1499.29358,90.6921 L1499.29312,90.6921 Z" id="Shape"></path>
                        </g>
                    </g>
                </g>
            </g>
        </g>
    </g>
</svg>