<?xml version="1.0" encoding="UTF-8"?>
<svg width="3029px" height="900px" viewBox="0 0 3029 900" version="1.1" xmlns="http://www.w3.org/2000/svg" xmlns:xlink="http://www.w3.org/1999/xlink">
    <!-- Generator: Sketch 60.1 (88133) - https://sketch.com -->
    <title>google</title>
    <desc>Created with Sketch.</desc>
    <defs>
        <linearGradient x1="60.9686625%" y1="4.9481245%" x2="26.6416712%" y2="71.9074222%" id="linearGradient-1">
            <stop stop-color="#00A0FF" offset="0%"></stop>
            <stop stop-color="#00A1FF" offset="1%"></stop>
            <stop stop-color="#00BEFF" offset="26%"></stop>
            <stop stop-color="#00D2FF" offset="51%"></stop>
            <stop stop-color="#00DFFF" offset="76%"></stop>
            <stop stop-color="#00E3FF" offset="100%"></stop>
        </linearGradient>
        <linearGradient x1="107.684729%" y1="50%" x2="-130.640394%" y2="50%" id="linearGradient-2">
            <stop stop-color="#FFE000" offset="0%"></stop>
            <stop stop-color="#FFBD00" offset="41%"></stop>
            <stop stop-color="#FFA500" offset="78%"></stop>
            <stop stop-color="#FF9C00" offset="100%"></stop>
        </linearGradient>
        <linearGradient x1="86.219293%" y1="30.7976799%" x2="-50.1497903%" y2="136.499293%" id="linearGradient-3">
            <stop stop-color="#FF3A44" offset="0%"></stop>
            <stop stop-color="#C31162" offset="100%"></stop>
        </linearGradient>
        <linearGradient x1="-18.7537448%" y1="-12.1995373%" x2="42.1210306%" y2="35.0061061%" id="linearGradient-4">
            <stop stop-color="#32A071" offset="0%"></stop>
            <stop stop-color="#2DA771" offset="7%"></stop>
            <stop stop-color="#15CF74" offset="48%"></stop>
            <stop stop-color="#06E775" offset="80%"></stop>
            <stop stop-color="#00F076" offset="100%"></stop>
        </linearGradient>
    </defs>
    <g id="google" stroke="none" stroke-width="1" fill="none" fill-rule="evenodd">
        <g id="fil_get" fill-rule="nonzero">
            <rect id="Rectangle" fill="#000000" x="0" y="0" width="3028.50148" height="900" rx="125"></rect>
            <path d="M2916.33476,18 C2968.37105,18 3010.55481,60.3090911 3010.55481,112.5 L3010.55481,787.5 C3010.55481,839.690909 2968.37105,882 2916.33476,882 L112.166722,882 C60.1304269,882 17.9466754,839.690909 17.9466754,787.5 L17.9466754,112.5 C17.9466754,60.3090911 60.1304269,18 112.166722,18 L2916.33476,18 M2916.33476,0 L112.166722,0 C50.2187518,0 0,50.3679656 0,112.5 L0,787.5 C0,849.632034 50.2187518,900 112.166722,900 L2916.33476,900 C2978.28273,900 3028.50148,849.632034 3028.50148,787.5 L3028.50148,112.5 C3028.50148,50.3679656 2978.28273,0 2916.33476,0 Z" id="Shape" fill="#A6A6A6"></path>
            <path d="M1063.78919,230.4 C1064.55985,247.077699 1058.47849,263.342855 1046.96418,275.4 C1034.09753,288.805572 1016.15162,296.087081 997.610821,295.425 C969.172974,295.201772 943.63952,277.902364 932.81641,251.525535 C921.9933,225.148706 927.989734,194.834755 948.03313,174.6 C961.056427,161.264834 979.004132,153.934097 997.610821,154.35 C1007.09469,154.318307 1016.4848,156.232537 1025.20383,159.975 C1033.32144,163.258955 1040.54788,168.425023 1046.29118,175.05 L1034.40151,186.975 C1025.32378,176.14522 1011.69638,170.228022 997.610821,171 C983.452002,170.930337 969.876014,176.649472 960.013344,186.838631 C950.150675,197.027789 944.852718,210.807391 945.341129,225 C945.040565,246.446768 957.634075,265.968889 977.262281,274.483312 C996.890487,282.997735 1019.69853,278.832277 1035.07451,263.925 C1041.97746,256.422074 1045.95878,246.678779 1046.29118,236.475 L997.610821,236.475 L997.610821,220.275 L1062.89185,220.275 C1063.49022,223.616568 1063.79052,227.004967 1063.78919,230.4 L1063.78919,230.4 Z M1166.5339,174.15 L1105.96387,174.15 L1105.96387,216.9 L1161.1499,216.9 L1161.1499,233.1 L1105.96387,233.1 L1105.96387,275.85 L1166.5339,275.85 L1166.5339,292.5 L1088.0172,292.5 L1088.0172,157.5 L1166.5339,157.5 L1166.5339,174.15 Z M1240.11527,292.5 L1222.8416,292.5 L1222.8416,174.15 L1185.15358,174.15 L1185.15358,157.5 L1278.70063,157.5 L1278.70063,174.15 L1240.11527,174.15 L1240.11527,292.5 Z M1344.65466,292.5 L1344.65466,157.5 L1361.92833,157.5 L1361.92833,292.5 L1344.65466,292.5 Z M1438.65037,292.5 L1421.3767,292.5 L1421.3767,174.15 L1383.68868,174.15 L1383.68868,157.5 L1476.11406,157.5 L1476.11406,174.15 L1438.65037,174.15 L1438.65037,292.5 Z M1651.31847,274.95 C1624.01687,302.180127 1579.91337,302.180127 1552.61176,274.95 C1526.14645,246.852762 1526.14645,202.922238 1552.61176,174.825 C1565.66793,161.634301 1583.43329,154.215742 1601.96512,154.215742 C1620.49695,154.215742 1638.2623,161.634301 1651.31847,174.825 C1677.89673,202.877096 1677.89673,246.897904 1651.31847,274.95 L1651.31847,274.95 Z M1565.39877,263.7 C1585.61848,283.895214 1618.31176,283.895214 1638.53147,263.7 C1658.38943,241.743851 1658.38943,208.256149 1638.53147,186.3 C1618.31176,166.104786 1585.61848,166.104786 1565.39877,186.3 C1545.54081,208.256149 1545.54081,241.743851 1565.39877,263.7 L1565.39877,263.7 Z M1695.51216,292.5 L1695.51216,157.5 L1716.59951,157.5 L1782.10487,262.575 L1782.10487,157.5 L1799.37855,157.5 L1799.37855,292.5 L1781.43187,292.5 L1713.01017,182.475 L1713.01017,292.5 L1695.51216,292.5 Z" id="Shape" stroke="#FFFFFF" stroke-width="0.2" fill="#FFFFFF"></path>
            <path d="M1528.60808,489.375 C1476.01142,489.623252 1433.55069,532.545326 1433.71502,585.298589 C1433.88032,638.051852 1476.60842,680.706186 1529.2056,680.623944 C1581.80278,680.541463 1624.39788,637.753522 1624.39846,585 C1624.76801,559.44841 1614.77975,534.840969 1596.72144,516.813832 C1578.66312,498.786696 1554.08196,488.884402 1528.60808,489.375 L1528.60808,489.375 Z M1528.60808,643.05 C1504.90114,644.712868 1482.58996,631.672053 1472.34573,610.164834 C1462.10151,588.657615 1466.00639,563.055363 1482.19273,545.603355 C1498.37906,528.151348 1523.55694,522.396728 1545.68407,531.091869 C1567.8112,539.787009 1582.3902,561.164611 1582.44811,585 C1583.17815,599.910118 1577.87244,614.483837 1567.73498,625.413984 C1557.59752,636.34413 1543.48794,642.703868 1528.60808,643.05 L1528.60808,643.05 Z M1319.75365,489.375 C1267.12725,489.499195 1224.55388,532.366804 1224.63626,585.149647 C1224.71889,637.93249 1267.42606,680.666007 1320.05258,680.624736 C1372.6791,680.583405 1415.31955,637.782908 1415.31969,585 C1415.68924,559.44841 1405.70098,534.840969 1387.64267,516.813832 C1369.58435,498.786696 1345.00319,488.884402 1319.52931,489.375 L1319.75365,489.375 Z M1319.75365,643.05 C1296.03433,644.806643 1273.65809,631.830854 1263.34167,610.337174 C1253.02526,588.843493 1256.86901,563.207884 1273.03202,545.708101 C1289.19503,528.208319 1314.38664,522.407196 1336.54172,531.083085 C1358.69681,539.758974 1373.30476,561.145525 1373.36934,585 C1374.09938,599.910118 1368.79367,614.483837 1358.65621,625.413984 C1348.51876,636.34413 1334.40917,642.703868 1319.52931,643.05 L1319.75365,643.05 Z M1070.96786,518.85 L1070.96786,559.35 L1167.8799,559.35 C1166.36035,578.425585 1158.45441,596.425376 1145.44656,610.425 C1125.84033,630.455054 1098.70766,641.242305 1070.74352,640.125 C1011.27347,640.125 963.063471,591.771753 963.063471,532.125 C963.063471,472.478247 1011.27347,424.125 1070.74352,424.125 C1098.06275,423.678124 1124.44361,434.116172 1144.10056,453.15 L1172.59091,424.575 C1145.78126,397.346808 1109.12066,382.168218 1070.96786,382.5 C1016.65585,380.380028 965.539968,408.232615 937.755384,455.086284 C909.970801,501.939953 909.970801,560.285047 937.755384,607.138716 C965.539968,653.992385 1016.65585,681.844972 1070.96786,679.725 C1109.81714,681.485723 1147.52704,666.307715 1174.38557,638.1 C1197.88845,612.200736 1210.43693,578.154627 1209.38159,543.15 C1209.45398,534.622235 1208.7027,526.107483 1207.13826,517.725 L1070.96786,518.85 Z M2087.42269,550.35 C2075.44507,515.007227 2042.95818,490.748693 2005.76531,489.374828 C1980.96219,489.326362 1957.24524,499.57667 1940.24603,517.692005 C1923.24681,535.80734 1914.48169,560.17177 1916.03194,585 C1915.481,610.409163 1925.25573,634.950638 1943.11015,652.985417 C1960.96458,671.020196 1985.36349,680.997573 2010.70065,680.625 C2042.57526,680.797327 2072.40678,664.907524 2090.11469,638.325 L2057.58634,615.825 C2047.70997,632.338699 2029.90037,642.423758 2010.70065,642.375 C1990.81554,643.135165 1972.48862,631.624496 1964.48796,613.35 L2092.13369,560.475 L2087.42269,550.35 Z M1957.30929,582.3 C1956.39069,568.241196 1961.1527,554.403262 1970.52178,543.9058 C1979.89087,533.408339 1993.07837,527.134987 2007.11132,526.5 C2021.90319,525.522411 2035.84992,533.490357 2042.556,546.75 L1957.30929,582.3 Z M1853.66724,675 L1895.61759,675 L1895.61759,393.75 L1853.66724,393.75 L1853.66724,675 Z M1785.02121,510.75 L1783.45087,510.75 C1770.66302,496.410228 1752.38197,488.224799 1733.20018,488.249942 C1682.27978,490.726612 1642.26297,532.855791 1642.26297,583.9875 C1642.26297,635.119209 1682.27978,677.248388 1733.20018,679.725 C1752.44415,680.049534 1770.84369,671.811049 1783.45087,657.225 L1784.79687,657.225 L1784.79687,670.95 C1784.79687,707.625 1765.27986,727.2 1733.87318,727.2 C1712.47857,726.697742 1693.5095,713.273253 1685.86582,693.225 L1649.29947,708.525 C1663.38047,742.878247 1696.84091,765.221812 1733.87318,765.001637 C1783.00221,765.001637 1823.60656,735.975 1823.60656,665.325 L1823.60656,495 L1785.02121,495 L1785.02121,510.75 Z M1737.01385,643.05 C1707.01795,640.398595 1684.0123,615.201638 1684.0123,585 C1684.0123,554.798362 1707.01795,529.601405 1737.01385,526.95 C1751.50847,527.696044 1765.08886,534.279828 1774.67607,545.208671 C1784.26327,556.137514 1789.04514,570.485629 1787.93754,585 C1789.1744,599.581112 1784.40782,614.034701 1774.74607,625.000223 C1765.08431,635.965746 1751.36918,642.487811 1736.78952,643.05 L1737.01385,643.05 Z M2283.93878,393.75 L2183.66173,393.75 L2183.66173,675 L2225.61209,675 L2225.61209,568.35 L2284.16312,568.35 C2316.75168,570.698186 2347.9181,554.591452 2364.92608,526.611892 C2381.93405,498.632332 2381.93405,463.467668 2364.92608,435.488108 C2347.9181,407.508548 2316.75168,391.401814 2284.16312,393.75 L2283.93878,393.75 Z M2283.93878,528.75 L2225.38776,528.75 L2225.38776,432.9 L2284.83612,432.9 C2311.4118,432.9 2332.95564,454.507857 2332.95564,481.1625 C2332.95564,507.817143 2311.4118,529.425 2284.83612,529.425 L2283.93878,528.75 Z M2542.59524,488.25 C2511.38402,486.378876 2482.04062,503.25948 2467.89221,531.225 L2505.13156,546.75 C2512.6334,532.882534 2527.59013,524.76425 2543.26824,526.05 C2554.02566,524.789879 2564.83686,527.916827 2573.27348,534.728479 C2581.71009,541.540131 2587.06483,551.465435 2588.13493,562.275 L2588.13493,565.2 C2574.6613,558.044979 2559.63544,554.335317 2544.38991,554.4 C2504.23422,554.4 2463.62987,576.9 2463.62987,617.625 C2464.43046,635.168448 2472.2721,651.641164 2485.37073,663.295441 C2498.46936,674.949717 2515.71108,680.794485 2533.17324,679.5 C2554.69196,681.04987 2575.33826,670.696046 2587.01327,652.5 L2588.35927,652.5 L2588.35927,675 L2628.73929,675 L2628.73929,566.775 C2628.73929,517.5 2591.49993,488.925 2543.71691,488.925 L2542.59524,488.25 Z M2537.43557,642.375 C2523.75123,642.375 2504.68289,635.4 2504.68289,618.525 C2504.68289,596.025 2528.46224,588.6 2549.54958,588.6 C2562.87593,588.270193 2576.04629,591.533716 2587.68627,598.05 C2584.78555,623.236838 2563.82893,642.432162 2538.55724,643.05 L2537.43557,642.375 Z M2775.90202,495 L2727.89467,616.95 L2726.54867,616.95 L2676.74664,495 L2631.87995,495 L2706.58299,665.55 L2663.95964,760.275 L2707.70466,760.275 L2822.56338,495 L2775.90202,495 Z M2398.79751,675 L2440.74786,675 L2440.74786,393.75 L2398.79751,393.75 L2398.79751,675 Z" id="Shape" fill="#FFFFFF"></path>
            <path d="M234.204115,169.65 C226.892302,178.449938 223.201763,189.715386 223.884776,201.15 L223.884776,698.85 C223.201763,710.284614 226.892302,721.550062 234.204115,730.35 L235.774449,731.925 L513.723585,453.375 L513.723585,446.85 L235.774449,168.075 L234.204115,169.65 Z" id="Path" fill="url(#linearGradient-1)"></path>
            <path d="M605.700296,546.3 L513.723585,453.375 L513.723585,446.85 L605.700296,353.7 L607.719297,354.825 L717.867018,417.6 C749.2737,435.375 749.2737,464.625 717.867018,482.625 L608.167964,545.175 L605.700296,546.3 Z" id="Path" fill="url(#linearGradient-2)"></path>
            <path d="M608.392298,544.95 L513.723585,450 L234.204115,730.35 C247.411022,741.994254 267.011287,742.561326 280.865471,731.7 L608.616631,544.95" id="Path" fill="url(#linearGradient-3)"></path>
            <path d="M608.392298,355.05 L280.641137,168.3 C266.786954,157.438674 247.186689,158.005746 233.979781,169.65 L513.723585,450 L608.392298,355.05 Z" id="Path" fill="url(#linearGradient-4)"></path>
            <path d="M605.700296,542.925 L280.641137,728.55 C267.339029,738.52507 249.076557,738.52507 235.774449,728.55 L234.204115,730.125 L235.774449,731.7 C249.051529,741.750283 267.364057,741.750283 280.641137,731.7 L608.392298,544.95 L605.700296,542.925 Z" id="Path" fill="#000000" opacity="0.2"></path>
            <path d="M234.204115,727.2 C226.892302,718.400062 223.201763,707.134614 223.884776,695.7 L223.884776,699.075 C223.201763,710.509614 226.892302,721.775062 234.204115,730.575 L235.774449,729 L234.204115,727.2 Z M717.867018,479.25 L605.700296,542.925 L607.719297,544.95 L717.867018,482.4 C730.588297,476.406297 739.144336,464.048992 740.300362,450 C737.743622,462.708854 729.45846,473.511567 717.867018,479.25 Z" id="Shape" fill="#000000" opacity="0.12"></path>
            <path d="M280.641137,171.45 L717.867018,420.75 C729.45846,426.488433 737.743622,437.291146 740.300362,450 C739.144336,435.951008 730.588297,423.593703 717.867018,417.6 L280.641137,168.3 C249.234455,150.525 223.660443,165.375 223.660443,201.375 L223.660443,204.75 C224.333443,168.525 249.458789,153.675 280.641137,171.45 L280.641137,171.45 Z" id="Path" fill="#FFFFFF" opacity="0.25"></path>
        </g>
    </g>
</svg>